# xmcd
#
# Track frame offsets:
#	150
#	21664
#	41251
#	58005
#	80937
#
# Disc length: 1440 seconds
#
# Revision: 0
# Processed by: cddbd v1.5.1PL2 Copyright (c) Steve Scherf et al.
# Submitted via: dBpowerAMP V4.0
#
DISCID=40059e05
DTITLE=Anita Shreve - Allt han någonsin drömt om - CD-BOK 09/09
DYEAR=2004
DGENRE=CD-BOK
TTITLE0=09.01
TTITLE1=09.02
TTITLE2=09.03
TTITLE3=09.04
TTITLE4=09.05
EXTD=
EXTT0=
EXTT1=
EXTT2=
EXTT3=
EXTT4=
PLAYORDER=
